PathFileType	4	(X/Y/Z)	/Users/whiskymisky/masters/Sports2D_results/trial_4_Sports2D/trial_4_Sports2D_px_person00.trc
DataRate	CameraRate	NumFrames	NumMarkers	Units	OrigDataRate	OrigDataStartFrame	OrigNumFrames
50	50	7	22	m	50	960	1098
Frame#	Time	Hip			RHip			RKnee			RAnkle			RBigToe			RSmallToe			RHeel			LHip			LKnee			LAnkle			LBigToe			LSmallToe			LHeel			Neck			Head			Nose			RShoulder			RElbow			RWrist			LShoulder			LElbow			LWrist		
		X1	Y1	Z1	X2	Y2	Z2	X3	Y3	Z3	X4	Y4	Z4	X5	Y5	Z5	X6	Y6	Z6	X7	Y7	Z7	X8	Y8	Z8	X9	Y9	Z9	X10	Y10	Z10	X11	Y11	Z11	X12	Y12	Z12	X13	Y13	Z13	X14	Y14	Z14	X15	Y15	Z15	X16	Y16	Z16	X17	Y17	Z17	X18	Y18	Z18	X19	Y19	Z19	X20	Y20	Z20	X21	Y21	Z21	X22	Y22	Z22
960	19.2	945.9755286983434	612.6244358769654	0.0	912.5320334067247	625.0793797275226	0.0	883.0509543102003	755.9688414841628	0.0	863.2672965236874	868.4174781153282	0.0	867.3096280326482	904.40083092425	0.0	845.1609837571106	898.6689128466774	0.0	868.6553382621867	882.29414943151	0.0	978.2504750191781	626.8054559555602	0.0	997.8182087485915	753.9009848495539	0.0	1015.6198052136963	856.7349537463127	0.0	1029.1975007058948	892.714938265745	0.0	1041.3916361647462	886.5548983335024	0.0	1009.1563678312734	870.0985611710964	0.0	948.2174002286303	438.4214607242242	0.0	942.8231534663798	356.27929741540015	0.0	946.2756801801634	402.39679822771524	0.0	892.917130299315	456.2643226330616	0.0	819.3500281742106	474.40479521997366	0.0	797.243303364264	406.6598168077998	0.0	1004.0274897331753	456.2640995866542	0.0	1073.1579327487523	468.07848330668435	0.0	1088.8411485508464	396.191093478583	0.0
961	19.22	945.9205208965567	612.5063620842265	0.0	912.313897435437	625.0768670861193	0.0	883.1914559076265	755.7913245646943	0.0	863.4461292843641	867.9697854437558	0.0	866.9175964323872	904.2477555296388	0.0	845.0396970366412	898.8659822408903	0.0	868.7285356446289	881.8284304127544	0.0	978.2917370179154	626.4465773725384	0.0	997.4776483191116	753.7352579357329	0.0	1015.2781346620974	856.0879847304011	0.0	1029.0624267257897	892.9185428602356	0.0	1041.581010145808	886.4224358919023	0.0	1008.7024966189277	869.3119846845304	0.0	947.9563537713444	438.30823628907723	0.0	942.6702494395585	355.82917608324317	0.0	946.0304739294543	402.5666018416083	0.0	893.0702082923053	456.1304818013849	0.0	819.2117764438243	474.5860559966327	0.0	796.8266557682659	406.573719131538	0.0	1004.0389075149021	456.16345534543854	0.0	1073.2923646719112	467.938626397064	0.0	1089.1828811471255	395.98622503588854	0.0
962	19.240000000000002	945.793142628836	612.229115757972	0.0	912.143751568992	625.0679802594591	0.0	883.4656045735572	755.5850129525329	0.0	863.730994487749	867.3078726920518	0.0	866.6803567743445	903.9209261774072	0.0	844.9548486207584	898.9651738561487	0.0	868.7098135374378	881.145475152446	0.0	978.4156838527775	626.0429734043481	0.0	997.1732433994304	753.5734720873811	0.0	1014.963576638842	855.3809020852326	0.0	1028.8332305776958	893.0271346053278	0.0	1041.7218040847147	886.1209958151506	0.0	1008.0847861948653	868.2646830182314	0.0	947.7357591485599	438.1851671225439	0.0	942.7617382700839	355.14653624479104	0.0	945.7936585333342	402.6059161550484	0.0	893.3564049507634	455.9835318613551	0.0	819.1828962406615	474.79810265437675	0.0	796.4394403387265	406.52124116988523	0.0	1004.1268226930856	456.0127007142421	0.0	1073.3761906782288	467.8099303124058	0.0	1089.289148837088	395.6574184099056	0.0
963	19.26	945.6466725809805	611.900626203778	0.0	912.0204498876367	625.0046210523578	0.0	883.7816461187864	755.3550076041475	0.0	863.980591813373	866.6453322356509	0.0	866.5032461144084	903.5289490310141	0.0	844.8380192383008	898.9919303389175	0.0	868.5751003585473	880.4659058166224	0.0	978.5269838960007	625.6711070536484	0.0	996.9402301510701	753.4600737086489	0.0	1014.716392767507	854.8222698172551	0.0	1028.5937827746518	893.0620882274653	0.0	1041.7818243820009	885.7511579677863	0.0	1007.4598376953858	867.2895404024081	0.0	947.5691120846083	438.0488742316785	0.0	942.9945598419674	354.4334258587659	0.0	945.5376557863723	402.53215279009885	0.0	893.6851514614243	455.82695036592236	0.0	819.2694863938324	474.93269282155075	0.0	796.1565834157248	406.52964146916867	0.0	1004.2059199239254	455.77270031732627	0.0	1073.3907985624498	467.73752212369106	0.0	1089.1084913025843	395.3856619278531	0.0
964	19.28	945.5349878921694	611.6291495080898	0.0	911.9427768320098	624.8440419802272	0.0	884.0487713850729	755.106063929932	0.0	864.0537216728529	866.1954977779736	0.0	866.2813066021279	903.180178146329	0.0	844.6176451894125	898.9760034978254	0.0	868.3038990304951	880.0113001283	0.0	978.5308919634219	625.4029426621047	0.0	996.8108640562165	753.4383812798462	0.0	1014.5775199550374	854.6154802572362	0.0	1028.4332081030807	893.0513991208761	0.0	1041.7329917162594	885.4146714138919	0.0	1006.9843027847583	866.718886120508	0.0	947.4698938691004	437.89688155165294	0.0	943.2590463119177	353.89200448662893	0.0	945.2353062985136	402.3764720645719	0.0	893.9655064366674	455.6642316307397	0.0	819.470747865776	474.8824837537112	0.0	796.0503249567719	406.6218050058273	0.0	1004.1895341450961	455.40841790919643	0.0	1073.3141922840066	467.76880062157375	0.0	1088.592284074726	395.34485884286454	0.0
965	19.3	945.4872457684415	611.4710570886812	0.0	911.9070861624075	624.5817441159601	0.0	884.2193914965626	754.847718583048	0.0	863.8873633448426	866.0658042193477	0.0	865.9543862485692	902.9362497773686	0.0	844.2583467953243	898.9404054962879	0.0	867.9006606883972	879.894742923133	0.0	978.3828917141319	625.2685821782833	0.0	996.7939187905587	753.5166966169375	0.0	1014.5605769720046	854.8345361678954	0.0	1028.3969163727375	893.019580763704	0.0	1041.5678190031997	885.1720246726948	0.0	1006.7361405196593	866.7093423048752	0.0	947.4404950124668	437.7330379754694	0.0	943.4792027854654	353.6207128254324	0.0	944.8802530064386	402.1812847233541	0.0	894.1373230449615	455.4996843849599	0.0	819.7667028406529	474.60548442330867	0.0	796.1421972417168	406.7931789698191	0.0	1004.0338293757499	454.917239195834	0.0	1073.133703750828	467.9178785515299	0.0	1087.7537201076912	395.5981656991807	0.0
966	19.32	945.4995010496076	611.4140777334497	0.0	911.9029861281775	624.2709019200182	0.0	884.3007687052257	754.6029030081045	0.0	863.5326827563631	866.217530845201	0.0	865.524276944882	902.8012488866007	0.0	843.7797171723654	898.9024465526865	0.0	867.417794314867	880.0768587268868	0.0	978.1107830305217	625.2388190192677	0.0	996.8604436115667	753.6499822287385	0.0	1014.634609307124	855.3601586945516	0.0	1028.4671179424608	892.9883147552231	0.0	1041.3142558031664	885.0328494494686	0.0	1006.685842645019	867.1669761060717	0.0	947.4635478755883	437.57102256669447	0.0	943.611697631084	353.57402006557015	0.0	944.4991430062746	402.00923555967347	0.0	894.1770286408521	455.340233772698	0.0	820.0992991829847	474.157715663049	0.0	796.3709013721269	406.99278146110106	0.0	1003.7592650269943	454.35005461917797	0.0	1072.8623007595313	468.1466339321878	0.0	1086.723962875028	396.04933808959515	0.0
